# xmcd CD database file
#
# Track frame offsets:
#	150
#	21262
#	41773
#	57108
#	73093
#	108988
#	125886
#	136260
#	151495
#	155742
#	172317
#	192838
#	206245
#	221576
#
# Disc length: 3263 seconds
#
# Revision: 1
# Processed by: cddbd v1.5.2PL0 Copyright (c) Steve Scherf et al.
# Submitted via: CDex 1.70beta2
#
DISCID=dc0cbd0e
DTITLE=HOTSHOTBLUESBAND - A DEAL WITH THE DEVIL
DYEAR=2001
DGENRE=Blues
TTITLE0=A Deal With The Devil
TTITLE1=Hey,Hey Blues
TTITLE2=Hoodoo Shuffle
TTITLE3=Little Red Roadster
TTITLE4=Last Day
TTITLE5=Good Groove
TTITLE6=Slidin' Slow
TTITLE7=Love Me One More Time
TTITLE8=Waiting For Spring
TTITLE9=Springtime
TTITLE10=I'll Never Let You Alone
TTITLE11=Boogie All Night Long
TTITLE12=Evil Black Rooster
TTITLE13=Min' Blues werd i ned reich 
EXTD=YEAR: 2001
EXTT0=
EXTT1=
EXTT2=
EXTT3=
EXTT4=
EXTT5=
EXTT6=
EXTT7=
EXTT8=
EXTT9=
EXTT10=
EXTT11=
EXTT12=
EXTT13=
PLAYORDER=
